<?xml version="1.0" encoding="UTF-8"?>
<svg width="50px" height="50px" viewBox="0 0 50 50" version="1.1" xmlns="http://www.w3.org/2000/svg" xmlns:xlink="http://www.w3.org/1999/xlink">
    <!-- Generator: Sketch 53.2 (72643) - https://sketchapp.com -->
    <title>@Avatar2</title>
    <desc>Created with Sketch.</desc>
    <defs>
        <path d="M46.5,25 C46.5,13.1264271 36.8735729,3.5 25,3.5 C13.125138,3.5 3.5,13.1257162 3.5,25 C3.5,36.8742838 13.125138,46.5 25,46.5 C36.8735729,46.5 46.5,36.8735729 46.5,25 Z M49.5,25 C49.5,38.5304271 38.5304271,49.5 25,49.5 C11.4682434,49.5 0.5,38.5310977 0.5,25 C0.5,11.4689023 11.4682434,0.5 25,0.5 C38.5304271,0.5 49.5,11.4695729 49.5,25 Z" id="path-1"></path>
        <path d="M41.7228,40.6484 C41.0448,39.8524 40.2088,39.1884 39.2488,38.7144 L32.1608,35.2164 C31.0748,34.6804 30.3368,33.6284 30.2068,32.4304 L30.1048,31.4824 C30.0148,30.6364 30.1948,29.7684 30.6988,29.0824 C31.3868,28.1464 31.8488,27.0344 31.9928,25.8104 L32.1248,24.6624 C33.1468,24.6624 34.0228,23.9424 34.2168,22.9464 L34.5908,21.0184 C34.7848,20.0064 34.2188,19.0024 33.2488,18.6404 L32.8408,18.4864 L33.2188,15.2004 C33.6988,11.0524 30.4308,7.4124 26.2268,7.4124 L23.7728,7.4124 C19.5668,7.4124 16.3008,11.0524 16.7788,15.2004 L17.1608,18.4864 L16.7508,18.6404 C15.7788,19.0024 15.2128,20.0064 15.4108,21.0184 L15.7828,22.9464 C15.9768,23.9424 16.8528,24.6624 17.8748,24.6624 L18.0088,25.8104 C18.1488,27.0344 18.6128,28.1464 19.3008,29.0824 C19.8028,29.7684 19.9848,30.6364 19.8948,31.4804 L19.7908,32.4304 C19.6628,33.6284 18.9268,34.6804 17.8388,35.2164 L10.7508,38.7144 C9.7908,39.1884 8.9548,39.8524 8.2748,40.6484 C8.2748,40.6484 12.6968,48.0004 25.0008,48.0004 C37.3028,48.0004 41.7228,40.6484 41.7228,40.6484" id="path-3"></path>
    </defs>
    <g id="📱-Individual-Screens" stroke="none" stroke-width="1" fill="none" fill-rule="evenodd">
        <g id="Walkthrough-15" transform="translate(-163.000000, -189.000000)">
            <g id="@Avatar2" transform="translate(163.000000, 189.000000)">
                <mask id="mask-2" fill="#ffffff">
                    <use xlink:href="#path-1"></use>
                </mask>
                <use id="Icon-Shape" fill="#ffffff" fill-rule="nonzero" xlink:href="#path-1"></use>
                <g id="UI/Colors/Dark-Grey" mask="url(#mask-2)" fill="#ffffff">
                    <rect id="Color" x="0" y="0" width="50" height="50"></rect>
                </g>
                <mask id="mask-4" fill="#ffffff">
                    <use xlink:href="#path-3"></use>
                </mask>
                <use id="Icon-Shape" fill="#ffffff" xlink:href="#path-3"></use>
                <g id="UI/Colors/Dark-Grey" mask="url(#mask-4)" fill="#ffffff">
                    <rect id="Color" x="0" y="0" width="50" height="50"></rect>
                </g>
            </g>
        </g>
    </g>
</svg>